# xmcd
#
# Track frame offsets:
#	150
#	22489
#	40497
#	63655
#	84247
#	102769
#
# Disc length: 1656 seconds
#
# Revision: 0
# Processed by: cddbd v1.5.2PL0 Copyright (c) Steve Scherf et al.
# Submitted via: audiograbber 1.83.01
#
DISCID=4d067606
DTITLE=Jen Mize - The Collective
DYEAR=2009
DGENRE=Country
TTITLE0=Predictable
TTITLE1=Another Man's Treasure
TTITLE2=Fortify My Life
TTITLE3=Humour Me
TTITLE4=Jerk The Wheel
TTITLE5=Murderer's Row
EXTD=
EXTT0=
EXTT1=
EXTT2=
EXTT3=
EXTT4=
EXTT5=
PLAYORDER=
